<svg id="positivo" xmlns="http://www.w3.org/2000/svg" viewBox="0 0 1833.25 716.03">
  <defs>
    <style>
      .cls-1 {
        fill: #fff;
      }

      .cls-2 {
        fill: none;
        stroke: #fff;
        stroke-miterlimit: 10;
        stroke-width: 44.75px;
      }
    </style>
  </defs>
  <title>logo</title>
  <g>
    <path class="cls-1" d="M274,667.82V448.89H312.8V667.82Zm27.19-33.57-3.88-36.91,73.25-53.83,23.59,20.81Zm42.46-48.84,54.94,82.41H353.31l-35.24-60.21Z" transform="translate(-79.07 -41.52)"/>
    <path class="cls-1" d="M414.91,503.55a17.47,17.47,0,0,1,6.8-14.15,22.66,22.66,0,0,1,14.56-5.55,21.63,21.63,0,0,1,14.29,5.55,17.77,17.77,0,0,1,6.52,14.15,17.36,17.36,0,0,1-6.52,14A21.93,21.93,0,0,1,436.27,523a23,23,0,0,1-14.56-5.41A17.08,17.08,0,0,1,414.91,503.55Zm.83,43h38.85V667.82H415.74Z" transform="translate(-79.07 -41.52)"/>
    <path class="cls-1" d="M496.21,493.29h38.84V546h29.42v30.24H535.05v91.57H496.21V576.25H477.34V546h18.87Z" transform="translate(-79.07 -41.52)"/>
    <path class="cls-1" d="M687.39,657a63.19,63.19,0,0,1-20.12,10.27,77.08,77.08,0,0,1-23.72,3.88q-20.82,0-36.21-7.63a55.82,55.82,0,0,1-23.87-21.92Q575,627.32,575,607.05t9.16-34.54a60.29,60.29,0,0,1,24-21.78,68.31,68.31,0,0,1,31.22-7.5q16.36,0,28.44,4.44a68.92,68.92,0,0,1,20.67,11.66l-18.87,25A56.7,56.7,0,0,0,659,578.06a37.2,37.2,0,0,0-16-3.19,27.14,27.14,0,0,0-14.7,4.16,29.77,29.77,0,0,0-10.55,11.38,34.56,34.56,0,0,0-3.88,16.64A33.22,33.22,0,0,0,618,623.43a30.63,30.63,0,0,0,11.52,11.79,33.67,33.67,0,0,0,17.34,4.3,37.17,37.17,0,0,0,11.79-1.8,27.66,27.66,0,0,0,9.3-5.14Z" transform="translate(-79.07 -41.52)"/>
    <path class="cls-1" d="M707.64,667.82V448.89h38V571l-.28-4.72a50,50,0,0,1,18-18.45q11.66-7.06,28.58-7.07,17.19,0,28.72,10.13t11.79,26.22v90.73H793.66v-76.3q-.28-8.06-4.3-12.91t-13.46-4.85q-13.59,0-21.5,12.62t-7.91,32v49.39Z" transform="translate(-79.07 -41.52)"/>
    <path class="cls-1" d="M922.41,671.15q-22.2,0-37.6-8.32a56.9,56.9,0,0,1-23.45-23q-8-14.71-8-33.86a59.88,59.88,0,0,1,9.43-33A69.2,69.2,0,0,1,888,549.48a71.61,71.61,0,0,1,35.24-8.74q26.09,0,42.87,15.12t21.79,43.7l-94.35,30L885,608.44l68.26-23L945.16,589a29,29,0,0,0-7.91-12.63q-5.68-5.4-17.06-5.41-13.05,0-20.81,8.88t-7.77,23.86q0,16.93,9.16,25.67a31.28,31.28,0,0,0,22.47,8.74,35.13,35.13,0,0,0,12.35-2.22,65.82,65.82,0,0,0,11.79-5.83l17.21,28.86a98,98,0,0,1-21,8.88A74.83,74.83,0,0,1,922.41,671.15Z" transform="translate(-79.07 -41.52)"/>
    <path class="cls-1" d="M1041.72,546.56l3.06,21.65-.56-2a50,50,0,0,1,18-18.45q11.65-7.06,28.58-7.07,17.21,0,28.72,10.13t11.79,26.22v90.73H1092.5v-76.3q-.27-8.06-4.3-12.91t-13.46-4.85q-13.59,0-21.5,12.62t-7.91,32v49.39h-38.85V546.56Z" transform="translate(-79.07 -41.52)"/>
    <path class="cls-1" d="M1248.17,546.56,1274.81,609l-7.22.55,23.31-63h37.74L1274,675l-38.84-80.47L1199.61,675l-55.22-128.48h37.74L1211.54,614l-13.32-1.94,23.31-51.61-6.38-13.88Z" transform="translate(-79.07 -41.52)"/>
    <path class="cls-1" d="M1388.57,671.15a68.19,68.19,0,0,1-30.66-6.8,50.46,50.46,0,0,1-21.78-21q-8.06-14.14-8.05-36.07,0-20.54,8.32-35.52a61,61,0,0,1,21.92-23.17,55.14,55.14,0,0,1,28.86-8.18q18,0,27.33,6a68.51,68.51,0,0,1,15.4,13.19l-1.66,4.71,3.61-17.76h36.07V667.82h-38.85V641.46l3.05,8.33q-.56,0-3.33,3.19a63,63,0,0,1-8.18,7.49A53.18,53.18,0,0,1,1407.3,668,49.88,49.88,0,0,1,1388.57,671.15Zm11.1-31.63q10.55,0,17.76-4.58t11.65-13.73V591.52a28.36,28.36,0,0,0-11.51-14.16,34.89,34.89,0,0,0-19.29-5.27,29.18,29.18,0,0,0-15.4,4.3,31.34,31.34,0,0,0-11.24,11.8,37.12,37.12,0,0,0,.28,34.68,33.24,33.24,0,0,0,11.79,12.21A30.31,30.31,0,0,0,1399.67,639.52Z" transform="translate(-79.07 -41.52)"/>
    <path class="cls-1" d="M1533.14,546.56l3.6,33.3-.83-5a55.22,55.22,0,0,1,14.43-18.46,83.34,83.34,0,0,1,18.17-11.79q9-4.15,13.74-4.16l-1.94,38.85q-13.61-1.66-23.31,4.44a41.64,41.64,0,0,0-15,16.09,43.45,43.45,0,0,0-5.28,20.53v47.45h-38.57V546.56Z" transform="translate(-79.07 -41.52)"/>
    <path class="cls-1" d="M1656.34,671.15q-22.2,0-37.6-8.32a56.84,56.84,0,0,1-23.45-23q-8.05-14.71-8-33.86a59.89,59.89,0,0,1,9.44-33,69.13,69.13,0,0,1,25.25-23.44,71.58,71.58,0,0,1,35.24-8.74q26.07,0,42.87,15.12t21.78,43.7l-94.34,30-8.6-21.09,68.26-23-8.05,3.61a29,29,0,0,0-7.91-12.63q-5.68-5.4-17.06-5.41-13,0-20.81,8.88t-7.77,23.86q0,16.93,9.15,25.67a31.32,31.32,0,0,0,22.48,8.74,35.17,35.17,0,0,0,12.35-2.22,66.49,66.49,0,0,0,11.79-5.83l17.2,28.86a97.61,97.61,0,0,1-21,8.88A74.76,74.76,0,0,1,1656.34,671.15Z" transform="translate(-79.07 -41.52)"/>
  </g>
  <path class="cls-2" d="M1785.05,418.66v217a99.49,99.49,0,0,1-99.5,99.5H297a99.49,99.49,0,0,1-99.5-99.5v-217" transform="translate(-79.07 -41.52)"/>
  <path class="cls-2" d="M1784.16,364.49c0-128.13-355.19-232-793.35-232s-793.36,103.87-793.36,232Z" transform="translate(-79.07 -41.52)"/>
  <path class="cls-2" d="M186.78,611.6a85.34,85.34,0,1,1,0-170.67" transform="translate(-79.07 -41.52)"/>
  <path class="cls-2" d="M1804.61,440.93a85.34,85.34,0,0,1,0,170.67" transform="translate(-79.07 -41.52)"/>
  <rect class="cls-2" x="840.39" y="22.38" width="120.04" height="64.84" rx="9.34"/>
</svg>
